HIERARCHY
ROOT Hips
{
	OFFSET -3.958830 18.904000 13.208200
	CHANNELS 6 Xposition Yposition Zposition Zrotation Yrotation Xrotation 
	JOINT LHipJoint
	{
		OFFSET 0.000000 0.000000 0.000000
		CHANNELS 3 Zrotation Yrotation Xrotation
		JOINT LeftUpLeg
		{
			OFFSET 1.800000 -1.400000 0.085000
			CHANNELS 3 Zrotation Yrotation Xrotation
			JOINT LeftLeg
			{
				OFFSET 2.215000 -6.000000 0.000000
				CHANNELS 3 Zrotation Yrotation Xrotation
				JOINT LeftFoot
				{
					OFFSET 2.500000 -6.900000 0.000000
					CHANNELS 3 Zrotation Yrotation Xrotation
					JOINT LeftToeBase
					{
						OFFSET 0.200000 -0.500000 1.950000
						CHANNELS 3 Zrotation Yrotation Xrotation
						End Site
						{
							OFFSET 0.000000 0.000000 0.000000
						}
					}
				}
			}
		}
	}
	JOINT RHipJoint
	{
		OFFSET 0.000000 0.000000 0.000000
		CHANNELS 3 Zrotation Yrotation Xrotation
		JOINT RightUpLeg
		{
			OFFSET -1.800000 -1.400000 0.085000
			CHANNELS 3 Zrotation Yrotation Xrotation
			JOINT RightLeg
			{
				OFFSET -2.215000 -6.000000 0.000000
				CHANNELS 3 Zrotation Yrotation Xrotation
				JOINT RightFoot
				{
					OFFSET -2.500000 -6.900000 0.000000
					CHANNELS 3 Zrotation Yrotation Xrotation
					JOINT RightToeBase
					{
						OFFSET -0.200000 -0.500000 1.950000
						CHANNELS 3 Zrotation Yrotation Xrotation
						End Site
						{
							OFFSET 0.000000 0.000000 0.000000
						}
					}
				}
			}
		}
	}
	JOINT LowerBack
	{
		OFFSET 0.000000 0.000000 0.000000
		CHANNELS 3 Zrotation Yrotation Xrotation
		JOINT Spine
		{
			OFFSET -0.087000 1.940000 -0.288900
			CHANNELS 3 Zrotation Yrotation Xrotation
			JOINT Spine1
			{
				OFFSET 0.000000 1.950000 0.060000
				CHANNELS 3 Zrotation Yrotation Xrotation
				JOINT Neck
				{
					OFFSET 0.000000 0.000000 0.000000
					CHANNELS 3 Zrotation Yrotation Xrotation
					JOINT Neck1
					{
						OFFSET 0.000000 1.600000 0.340000
						CHANNELS 3 Zrotation Yrotation Xrotation
						JOINT Head
						{
							OFFSET 0.000000 1.667000 -0.240000
							CHANNELS 3 Zrotation Yrotation Xrotation
							End Site
							{
								OFFSET 0.000000 0.000000 0.000000
							}
						}
					}
				}
				JOINT LeftShoulder
				{
					OFFSET 0.000000 0.000000 0.000000
					CHANNELS 3 Zrotation Yrotation Xrotation
					JOINT LeftArm
					{
						OFFSET 2.700000 1.550000 -0.730000
						CHANNELS 3 Zrotation Yrotation Xrotation
						JOINT LeftForeArm
						{
							OFFSET 5.450000 0.000000 0.000000
							CHANNELS 3 Zrotation Yrotation Xrotation
							JOINT LeftHand
							{
								OFFSET 3.450000 0.000000 0.000000
								CHANNELS 3 Zrotation Yrotation Xrotation
								JOINT LeftHandIndex1
								{
									OFFSET 0.750000 0.000000 0.000000
									CHANNELS 3 Zrotation Yrotation Xrotation
									End Site
									{
										OFFSET 0.000000 0.000000 0.000000
									}
								}
							}
						}
					}
				}
				JOINT RightShoulder
				{
					OFFSET 0.000000 0.000000 0.000000
					CHANNELS 3 Zrotation Yrotation Xrotation
					JOINT RightArm
					{
						OFFSET -2.700000 1.550000 -0.730000
						CHANNELS 3 Zrotation Yrotation Xrotation
						JOINT RightForeArm
						{
							OFFSET -5.450000 0.000000 0.000000
							CHANNELS 3 Zrotation Yrotation Xrotation
							JOINT RightHand
							{
								OFFSET -3.450000 0.000000 0.000000
								CHANNELS 3 Zrotation Yrotation Xrotation
								JOINT RightHandIndex1
								{
									OFFSET -0.750000 0.000000 0.000000
									CHANNELS 3 Zrotation Yrotation Xrotation
									End Site
									{
										OFFSET 0.000000 0.000000 0.000000
									}
								}
							}
						}
					}
				}
			}
		}
	}
}
MOTION
Frames: 13
Frame Time: 0.016667
0.152170 16.152650 -8.356190 -4.630140 -41.451072 19.871662 -16.400239 9.335411 8.834570 41.904240 6.240163 -60.493489 -15.566823 9.306461 12.843792 0.191344 7.517309 1.560292 0.337260 0.326950 0.242960 17.779802 -8.820699 1.160336 -29.715376 4.493661 -11.549075 12.853984 -11.114370 28.702586 -0.582533 -5.888566 2.001254 0.153520 -0.129020 0.138760 -2.569892 -2.520112 -10.003961 -5.254744 5.991357 34.477325 1.204878 7.066625 -5.432034 -0.259012 -7.944328 -10.683578 -23.961917 13.881050 52.481327 -1.826710 5.151270 -12.624350 -42.808812 -14.670721 1.640481 -36.839004 -6.209764 -8.294435 -33.438079 -39.959338 8.628066 -3.308572 3.275601 0.483720 -0.185420 0.338080 0.041440 44.474791 23.646464 8.242062 41.510101 13.650160 -6.575448 23.741641 25.198803 3.323782 2.291199 -1.334199 -0.000710 0.175180 -0.010660 -0.077800 
0.183150 16.047200 -8.311880 -4.374986 -40.420928 20.220326 -16.421694 9.144511 9.047759 42.915900 6.390241 -62.958646 -16.392529 9.905881 14.902652 0.218710 7.784579 1.481157 0.332780 0.314850 0.248240 17.810118 -8.766403 1.125988 -30.131960 4.601680 -12.491832 12.563248 -11.790854 31.321892 -0.638283 -6.160979 1.904229 0.140120 -0.130700 0.133890 -2.599200 -2.451192 -10.083456 -5.812372 6.203569 36.198275 1.131454 7.090752 -6.138650 -0.189365 -8.004887 -10.971573 -23.525235 12.478233 51.160588 -1.199190 3.958650 -14.776580 -42.784384 -15.413042 1.814141 -36.558608 -5.884633 -8.624990 -35.957778 -41.644840 9.946314 -3.277072 3.268948 0.516770 -0.210050 0.352350 0.035650 44.485481 24.412266 8.768793 41.265714 12.712150 -7.577846 24.716326 27.235349 3.754219 2.258417 -1.337638 -0.008540 0.201300 -0.003230 -0.078120 
0.241560 15.914880 -8.245440 -3.848600 -37.593704 20.582566 -16.410010 8.988062 9.147218 42.060012 5.285314 -67.470643 -14.971107 10.009615 17.719857 0.194184 7.578246 1.539777 0.351180 0.334650 0.277650 17.861589 -8.595844 1.271576 -31.240904 4.861904 -13.956588 13.943351 -13.708206 35.302995 -0.806804 -6.855196 1.652517 0.130460 -0.189260 0.127910 -2.592849 -2.550125 -10.220826 -5.821770 6.448374 39.150455 1.323760 7.327953 -6.341011 0.315010 -7.706078 -12.594370 -23.045570 11.342955 51.904045 -0.921100 3.108180 -17.001810 -42.647473 -18.478961 2.568604 -36.488067 -6.503412 -8.868371 -38.731188 -42.118144 11.012145 -3.189463 3.269298 0.568050 -0.266060 0.403550 0.023190 43.874509 27.113306 10.475127 40.203054 10.903665 -9.926824 25.093448 31.758479 4.405882 2.183394 -1.388954 0.006090 0.200320 -0.016340 -0.088450 
0.303200 15.797550 -8.102310 -3.079677 -36.847272 19.829571 -16.513835 8.676319 9.505742 44.598831 6.229454 -70.057103 -19.943497 12.117341 21.911097 0.370148 8.646976 1.169283 0.379910 0.364080 0.301810 17.864733 -8.329613 1.245057 -33.336991 5.293430 -14.473029 14.014407 -14.848592 38.350838 -0.936892 -7.342438 1.465940 0.125140 -0.248410 0.125790 -2.536424 -2.680329 -10.375566 -7.266993 7.713952 42.725704 2.403181 7.848723 -7.339269 0.619673 -8.248122 -14.127516 -25.067005 11.465533 52.498663 -0.396530 1.934900 -19.102110 -43.137799 -20.263619 3.056616 -37.972522 -5.984972 -9.474006 -40.780795 -41.764776 11.254322 -3.084890 3.273138 0.616350 -0.332790 0.456810 0.015980 44.525984 29.116520 11.890172 37.825122 9.261999 -11.481371 25.715527 33.892471 4.957188 2.115242 -1.435782 0.031210 0.195780 -0.031450 -0.086170 
0.368610 15.688160 -7.921220 -2.451336 -35.752695 19.375957 -16.563166 8.470587 9.762350 46.025521 6.629387 -72.803967 -23.197771 14.014665 25.616417 0.536796 9.414489 0.927472 0.407870 0.403700 0.285490 17.887347 -8.213425 1.150416 -34.584220 5.344903 -14.343782 13.246531 -15.302222 40.357161 -1.005688 -7.603630 1.378523 0.136990 -0.261450 0.118430 -2.523127 -2.727445 -10.433008 -8.214578 8.409613 45.425582 3.212095 7.973887 -8.389529 0.496905 -9.186578 -14.412143 -27.754959 11.523749 51.337568 1.251970 0.139570 -20.698910 -42.892826 -20.137849 2.838969 -39.502169 -5.653582 -9.568930 -44.066788 -41.224325 11.983127 -3.047840 3.279976 0.628860 -0.373340 0.475200 0.036040 44.903270 29.397099 12.231771 36.128069 7.887867 -12.062519 26.581490 34.378338 5.304645 2.085590 -1.470348 0.051790 0.204410 -0.046370 -0.059450 
0.401960 15.579450 -7.700730 -1.471900 -34.285055 18.962317 -16.639753 8.398701 10.002572 47.160054 7.081537 -75.160688 -26.958163 15.939375 28.204143 0.720444 10.131361 0.721240 0.413270 0.419010 0.255470 17.868555 -8.160496 0.913804 -35.058809 5.121574 -12.855559 11.771335 -14.995253 41.050267 -1.010452 -7.605266 1.383281 0.142610 -0.243430 0.111730 -2.365581 -2.948816 -10.412543 -10.205718 9.660758 46.639116 5.200471 8.085193 -8.969093 0.029340 -9.901810 -13.856125 -29.511825 11.648999 49.812138 3.188340 -0.990890 -21.748910 -42.277352 -18.781081 2.616598 -42.012356 -4.566817 -9.986122 -46.528154 -41.124105 12.442810 -3.061840 3.271707 0.629370 -0.389470 0.473710 0.054220 45.399304 28.514515 11.949035 34.234748 6.500774 -12.092610 28.572411 34.465663 5.916701 2.066002 -1.500076 0.056540 0.220770 -0.047790 -0.032870 
0.406340 15.496970 -7.468490 -1.004738 -32.731602 19.322142 -16.721801 8.494037 10.230172 46.901090 7.759550 -78.025275 -28.910078 17.824517 31.012453 0.882688 10.739633 0.557596 0.394370 0.399650 0.216320 17.819340 -8.244191 0.526245 -33.449255 4.952309 -10.920988 8.599804 -13.410127 41.306285 -0.935714 -7.278361 1.515969 0.129980 -0.212880 0.108450 -2.128738 -3.229933 -10.304030 -12.129336 11.395748 46.683816 7.687739 8.654849 -8.698622 -0.457844 -10.628183 -13.435715 -30.751195 11.228369 47.795009 4.226860 -2.030220 -21.874970 -40.595854 -17.313964 2.712629 -44.708576 -2.804148 -10.636379 -51.257970 -41.789071 13.970710 -3.121177 3.265460 0.611810 -0.385040 0.451810 0.066970 44.873189 27.954514 11.743684 32.662345 5.485768 -11.966335 30.151636 34.496354 6.415207 2.052231 -1.531415 0.056400 0.225480 -0.040200 -0.009570 
0.423780 15.461270 -7.211190 -0.745715 -30.761273 19.396169 -16.750543 8.676010 10.403459 46.286198 7.476291 -80.131361 -30.649934 19.202998 33.195935 1.023469 11.142671 0.460654 0.391660 0.406480 0.183530 17.792005 -8.431365 0.135878 -30.764399 4.542309 -8.476725 4.799592 -11.452566 41.595755 -0.876869 -6.900871 1.682140 0.130600 -0.190650 0.096640 -1.939973 -3.460809 -10.154760 -13.405898 12.567350 47.298121 9.677765 9.107324 -8.605913 -0.934772 -11.294355 -13.044867 -32.237055 10.674020 46.392937 5.608460 -3.480670 -22.098060 -39.686809 -16.176590 2.572471 -46.383634 -2.319946 -10.683632 -56.343438 -41.917704 15.750651 -3.158269 3.275099 0.588940 -0.389230 0.435540 0.085290 45.064390 27.412704 11.664333 31.317834 5.049547 -11.878093 30.735276 34.217367 6.577296 2.036884 -1.563470 0.063960 0.235050 -0.044480 0.019410 
0.454520 15.454080 -6.969350 0.038513 -29.023133 19.776342 -16.755993 8.754029 10.553167 45.596101 6.912202 -82.477796 -32.215746 20.408369 35.009353 1.131054 11.476130 0.375077 0.382910 0.404180 0.155440 17.799634 -8.587162 -0.114373 -28.399876 4.292179 -7.887544 0.948598 -9.667282 43.200594 -0.860208 -6.721727 1.769257 0.132540 -0.167800 0.095040 -1.845432 -3.485804 -10.058459 -14.847936 13.880507 47.265913 10.847130 9.321965 -8.028832 -1.295098 -11.269742 -13.077794 -31.879314 10.180848 45.993509 7.620640 -4.086710 -22.351830 -38.114172 -16.390649 2.760443 -47.840008 -2.846792 -10.709281 -58.748770 -42.168330 16.649342 -3.188708 3.277109 0.586640 -0.387440 0.427340 0.092310 44.315736 27.695810 11.685605 31.155847 5.106154 -11.869151 30.568554 33.974996 6.472644 2.042431 -1.550903 0.059190 0.240600 -0.038160 0.034340 
0.473740 15.455600 -6.722550 0.426055 -27.243055 20.321036 -16.763253 8.786704 10.690653 45.517653 6.591365 -84.265789 -34.488348 21.560034 35.977646 1.260964 11.787285 0.308083 0.368910 0.382560 0.147770 17.807441 -8.695065 -0.287971 -26.079628 3.984421 -7.032164 -2.124558 -8.178546 44.345653 -0.863430 -6.623837 1.836307 0.120620 -0.152420 0.089970 -1.758641 -3.487731 -10.004870 -15.531426 14.849647 46.318499 11.583267 9.651399 -6.827810 -1.316894 -10.893591 -13.995606 -31.289001 10.770316 47.059924 8.607430 -3.590300 -20.542050 -36.805012 -17.850269 3.399714 -48.747217 -3.428129 -10.854238 -59.588266 -43.545868 17.581620 -3.204349 3.282562 0.579290 -0.376430 0.415180 0.095740 43.384031 28.784976 12.410632 31.460010 4.259240 -12.213029 29.319773 33.788100 6.026472 2.025866 -1.557732 0.051690 0.233990 -0.038400 0.032600 
0.502090 15.524090 -6.490990 0.660792 -25.474459 20.627971 -16.739263 8.792951 10.709399 45.040759 5.682484 -84.916071 -35.881158 22.097311 36.478702 1.311141 11.890486 0.277137 0.393380 0.420310 0.176590 17.825140 -8.735418 -0.306592 -24.964446 3.703571 -6.319595 -2.457960 -7.935946 44.116435 -0.886932 -6.546438 1.869261 0.136320 -0.171550 0.082980 -1.730187 -3.427467 -10.000030 -15.511628 15.688672 46.206013 11.385709 10.323491 -5.606087 -1.137087 -10.183578 -14.681264 -30.123709 10.859504 48.937918 9.662080 -3.054750 -21.089650 -35.755942 -19.663204 3.496013 -48.739898 -6.179609 -10.186466 -57.443521 -44.399563 17.379668 -3.188281 3.260399 0.601740 -0.392720 0.443740 0.093780 42.171575 30.115754 13.132360 31.918428 4.310439 -12.666782 28.591339 34.713379 5.945665 2.008313 -1.546137 0.054160 0.245550 -0.053560 0.024530 
0.510560 15.588170 -6.263490 1.121203 -23.677342 20.858137 -16.716151 8.804020 10.664756 43.748055 4.370126 -85.629725 -35.724571 22.574453 37.706477 1.326331 11.972043 0.247004 0.415850 0.450280 0.207590 17.839137 -8.751717 -0.280641 -24.190926 3.474391 -5.917884 -2.099298 -8.168929 44.357872 -0.928574 -6.605927 1.844296 0.150380 -0.191120 0.094830 -1.686764 -3.345999 -9.992975 -16.057857 16.352450 45.493349 11.020123 10.751764 -4.428307 -1.114707 -9.393001 -14.327970 -27.861663 9.250916 49.975763 9.630650 -3.174650 -22.311660 -34.723095 -20.004889 3.453098 -48.613003 -7.966102 -9.584269 -59.521638 -46.834765 19.842108 -3.204594 3.263057 0.615180 -0.398800 0.469860 0.089300 40.783549 30.487321 12.974153 32.735044 5.126822 -12.631397 30.009605 36.022292 6.510479 2.018997 -1.534494 0.062790 0.246420 -0.064150 0.015800 
0.536150 15.649940 -6.049090 1.061603 -22.084528 21.028605 -16.721458 8.834052 10.578224 42.493015 3.319741 -85.872102 -35.759235 22.980835 38.576176 1.339546 12.050794 0.218193 0.429430 0.468720 0.222800 17.830744 -8.654209 -0.193445 -23.800555 3.406181 -5.850788 -0.259634 -9.247889 44.929977 -0.980498 -6.824873 1.765511 0.165360 -0.199610 0.096020 -1.595393 -3.444412 -10.001818 -15.815559 16.701427 44.587771 11.200562 11.356381 -2.910024 -1.103552 -8.982925 -14.191873 -26.842182 8.329526 50.622520 9.752880 -3.374100 -22.709510 -33.412361 -20.132320 3.597885 -49.562034 -9.702891 -8.903111 -63.721619 -50.841837 24.309811 -3.239068 3.271338 0.619300 -0.399670 0.478050 0.086820 39.260512 30.911132 12.897944 33.259278 6.128867 -12.567759 31.390797 37.337858 7.137657 2.022090 -1.536673 0.062630 0.248850 -0.069380 0.009430 
